# xmcd
#
# Track frame offsets:
#	150
#	23367
#	44990
#	69593
#	85767
#	112735
#	130575
#	151136
#	174872
#	198855
#
# Disc length: 2883 seconds
#
# Revision: 0
# Processed by: cddbd v1.5.1PL0 Copyright (c) Steve Scherf et al.
# Submitted via: dBpowerAMP V4.0
#
DISCID=6e0b410a
DTITLE=Norah Jones - Live At Heineken Music Hall [CD2]
DYEAR=2004
DGENRE=Blues
TTITLE0=Don't Know Why
TTITLE1=Creepin' In
TTITLE2=Above Ground
TTITLE3=Sunrise
TTITLE4=I've Got To See You Again
TTITLE5=Come Away With Me
TTITLE6=Lonestar
TTITLE7=Life Is A Carnival
TTITLE8=Cold, Cold Heart
TTITLE9=Seven Years
EXTD=
EXTT0=
EXTT1=
EXTT2=
EXTT3=
EXTT4=
EXTT5=
EXTT6=
EXTT7=
EXTT8=
EXTT9=
PLAYORDER=
